<svg id="my-svg" width="621" xmlns="http://www.w3.org/2000/svg" xmlns:xlink="http://www.w3.org/1999/xlink" class="erDiagram" height="421" viewBox="6.25 0 621 421" role="graphics-document document" aria-roledescription="er" style="background-color: rgb(255, 255, 255);"><style>#my-svg{font-family:"trebuchet ms",verdana,arial,sans-serif;font-size:16px;fill:#000000;}@keyframes edge-animation-frame{from{stroke-dashoffset:0;}}@keyframes dash{to{stroke-dashoffset:0;}}#my-svg .edge-animation-slow{stroke-dasharray:9,5!important;stroke-dashoffset:900;animation:dash 50s linear infinite;stroke-linecap:round;}#my-svg .edge-animation-fast{stroke-dasharray:9,5!important;stroke-dashoffset:900;animation:dash 20s linear infinite;stroke-linecap:round;}#my-svg .error-icon{fill:#552222;}#my-svg .error-text{fill:#552222;stroke:#552222;}#my-svg .edge-thickness-normal{stroke-width:1px;}#my-svg .edge-thickness-thick{stroke-width:3.5px;}#my-svg .edge-pattern-solid{stroke-dasharray:0;}#my-svg .edge-thickness-invisible{stroke-width:0;fill:none;}#my-svg .edge-pattern-dashed{stroke-dasharray:3;}#my-svg .edge-pattern-dotted{stroke-dasharray:2;}#my-svg .marker{fill:#666;stroke:#666;}#my-svg .marker.cross{stroke:#666;}#my-svg svg{font-family:"trebuchet ms",verdana,arial,sans-serif;font-size:16px;}#my-svg p{margin:0;}#my-svg .entityBox{fill:#eee;stroke:#999;}#my-svg .relationshipLabelBox{fill:#eeeeee;opacity:0.7;background-color:#eeeeee;}#my-svg .relationshipLabelBox rect{opacity:0.5;}#my-svg .labelBkg{background-color:rgba(237.9999999999, 237.9999999999, 237.9999999999, 0.5);}#my-svg .edgeLabel{background-color:white;}#my-svg .edgeLabel .label rect{fill:white;}#my-svg .edgeLabel .label text{fill:#000000;}#my-svg .edgeLabel .label{fill:#999;font-size:14px;}#my-svg .label{font-family:"trebuchet ms",verdana,arial,sans-serif;color:#000000;}#my-svg .edge-pattern-dashed{stroke-dasharray:8,8;}#my-svg .node rect,#my-svg .node circle,#my-svg .node ellipse,#my-svg .node polygon{fill:#eee;stroke:#999;stroke-width:1px;}#my-svg .relationshipLine{stroke:#666;stroke-width:1px;fill:none;}#my-svg .marker{fill:none!important;stroke:#666!important;stroke-width:1;}#my-svg [data-look=neo].labelBkg{background-color:rgba(237.9999999999, 237.9999999999, 237.9999999999, 0.5);}#my-svg .cluster rect{fill:#fcfcfc;stroke:#707070;stroke-width:1px;}#my-svg .cluster text{fill:#333;}#my-svg .cluster-label text{fill:#333;}#my-svg .node .neo-node{stroke:#999;}#my-svg [data-look="neo"].node rect,#my-svg [data-look="neo"].cluster rect,#my-svg [data-look="neo"].node polygon{stroke:url(#my-svg-gradient);filter:drop-shadow( 1px 2px 2px rgba(185,185,185,1));}#my-svg [data-look="neo"].swimlane.cluster rect{filter:none;}#my-svg [data-look="neo"].node path{stroke:url(#my-svg-gradient);stroke-width:1px;}#my-svg [data-look="neo"].node .outer-path{filter:drop-shadow( 1px 2px 2px rgba(185,185,185,1));}#my-svg [data-look="neo"].node .neo-line path{stroke:#999;filter:none;}#my-svg [data-look="neo"].node circle{stroke:url(#my-svg-gradient);filter:drop-shadow( 1px 2px 2px rgba(185,185,185,1));}#my-svg [data-look="neo"].node circle .state-start{fill:#000000;}#my-svg [data-look="neo"].icon-shape .icon{fill:url(#my-svg-gradient);filter:drop-shadow( 1px 2px 2px rgba(185,185,185,1));}#my-svg [data-look="neo"].icon-shape .icon-neo path{stroke:url(#my-svg-gradient);filter:drop-shadow( 1px 2px 2px rgba(185,185,185,1));}#my-svg :root{--mermaid-font-family:"trebuchet ms",verdana,arial,sans-serif;}</style><g><defs><marker id="my-svg_er-onlyOneStart" class="marker onlyOne er" refX="0" refY="9" markerWidth="18" markerHeight="18" orient="auto"><path d="M9,0 L9,18 M15,0 L15,18"/></marker></defs><defs><marker id="my-svg_er-onlyOneEnd" class="marker onlyOne er" refX="18" refY="9" markerWidth="18" markerHeight="18" orient="auto"><path d="M3,0 L3,18 M9,0 L9,18"/></marker></defs><defs><marker id="my-svg_er-zeroOrOneStart" class="marker zeroOrOne er" refX="0" refY="9" markerWidth="30" markerHeight="18" orient="auto"><circle fill="white" cx="21" cy="9" r="6"/><path d="M9,0 L9,18"/></marker></defs><defs><marker id="my-svg_er-zeroOrOneEnd" class="marker zeroOrOne er" refX="30" refY="9" markerWidth="30" markerHeight="18" orient="auto"><circle fill="white" cx="9" cy="9" r="6"/><path d="M21,0 L21,18"/></marker></defs><defs><marker id="my-svg_er-oneOrMoreStart" class="marker oneOrMore er" refX="18" refY="18" markerWidth="45" markerHeight="36" orient="auto"><path d="M0,18 Q 18,0 36,18 Q 18,36 0,18 M42,9 L42,27"/></marker></defs><defs><marker id="my-svg_er-oneOrMoreEnd" class="marker oneOrMore er" refX="27" refY="18" markerWidth="45" markerHeight="36" orient="auto"><path d="M3,9 L3,27 M9,18 Q27,0 45,18 Q27,36 9,18"/></marker></defs><defs><marker id="my-svg_er-zeroOrMoreStart" class="marker zeroOrMore er" refX="18" refY="18" markerWidth="57" markerHeight="36" orient="auto"><circle fill="white" cx="48" cy="18" r="6"/><path d="M0,18 Q18,0 36,18 Q18,36 0,18"/></marker></defs><defs><marker id="my-svg_er-zeroOrMoreEnd" class="marker zeroOrMore er" refX="39" refY="18" markerWidth="57" markerHeight="36" orient="auto"><circle fill="white" cx="9" cy="18" r="6"/><path d="M21,18 Q39,0 57,18 Q39,36 21,18"/></marker></defs><g class="root"><g class="clusters"/><g class="edgePaths"><path d="M128.75,121.25L128.75,129.833C128.75,138.417,128.75,155.583,139.709,172.75C150.668,189.917,172.586,207.083,183.545,215.667L194.504,224.25" id="my-svg-id_entity-generation_jobs-2_entity-feedback-1_0" class="edge-thickness-normal edge-pattern-solid relationshipLine" style="undefined;;;undefined" data-edge="true" data-et="edge" data-id="id_entity-generation_jobs-2_entity-feedback-1_0" data-points="W3sieCI6MTI4Ljc1LCJ5IjoxMjEuMjV9LHsieCI6MTI4Ljc1LCJ5IjoxNzIuNzV9LHsieCI6MTk0LjUwNDA3MDI2NTYzODQsInkiOjIyNC4yNX1d" data-look="classic" marker-start="url(#my-svg_er-zeroOrOneStart)" marker-end="url(#my-svg_er-zeroOrMoreEnd)"/><path d="M501.25,121.25L501.25,129.833C501.25,138.417,501.25,155.583,490.291,172.75C479.332,189.917,457.414,207.083,446.455,215.667L435.496,224.25" id="my-svg-id_entity-knowledge_releases-0_entity-feedback-1_1" class="edge-thickness-normal edge-pattern-solid relationshipLine" style="undefined;;;undefined" data-edge="true" data-et="edge" data-id="id_entity-knowledge_releases-0_entity-feedback-1_1" data-points="W3sieCI6NTAxLjI1LCJ5IjoxMjEuMjV9LHsieCI6NTAxLjI1LCJ5IjoxNzIuNzV9LHsieCI6NDM1LjQ5NTkyOTczNDM2MTYsInkiOjIyNC4yNX1d" data-look="classic" marker-start="url(#my-svg_er-zeroOrOneStart)" marker-end="url(#my-svg_er-zeroOrMoreEnd)"/></g><g class="edgeLabels"><g class="edgeLabel" transform="translate(128.75, 172.75)"><g class="label" data-id="id_entity-generation_jobs-2_entity-feedback-1_0" transform="translate(0.5, -9.000000476837158)"><g><rect class="background" style="" x="-26" y="-1" width="51" height="23"/><text y="-10.1" text-anchor="middle" style=""><tspan class="text-outer-tspan row" x="0" y="-0.1em" dy="1.1em" text-anchor="middle"><tspan font-style="normal" class="text-inner-tspan" font-weight="normal">job_id</tspan></tspan></text></g></g></g><g class="edgeLabel" transform="translate(501.25, 172.75)"><g class="label" data-id="id_entity-knowledge_releases-0_entity-feedback-1_1" transform="translate(0, -9.000000476837158)"><g><rect class="background" style="" x="-42.5" y="-1" width="85" height="23"/><text y="-10.1" text-anchor="middle" style=""><tspan class="text-outer-tspan row" x="0" y="-0.1em" dy="1.1em" text-anchor="middle"><tspan font-style="normal" class="text-inner-tspan" font-weight="normal">release_id</tspan></tspan></text></g></g></g></g><g class="nodes"><g class="node default" id="my-svg-entity-knowledge_releases-0" data-look="classic" transform="translate(501.25, 64.625)"><g class="outer-path" style=""><path d="M-105.5 -56.625 L105.5 -56.625 L105.5 56.625 L-105.5 56.625" stroke="none" stroke-width="0" fill="#eee"/><path d="M-105.5 -56.625 C-26.43089178886447 -56.625, 52.63821642227106 -56.625, 105.5 -56.625 M-105.5 -56.625 C-55.800745466954815 -56.625, -6.101490933909631 -56.625, 105.5 -56.625 M105.5 -56.625 C105.5 -31.463363869756193, 105.5 -6.301727739512387, 105.5 56.625 M105.5 -56.625 C105.5 -17.25235479832547, 105.5 22.12029040334906, 105.5 56.625 M105.5 56.625 C45.99463333036832 56.625, -13.510733339263354 56.625, -105.5 56.625 M105.5 56.625 C41.985659118785485 56.625, -21.52868176242903 56.625, -105.5 56.625 M-105.5 56.625 C-105.5 17.039809134397302, -105.5 -22.545381731205396, -105.5 -56.625 M-105.5 56.625 C-105.5 18.734704055228846, -105.5 -19.155591889542308, -105.5 -56.625" stroke="#999" stroke-width="1.3" fill="none" stroke-dasharray="0 0"/></g><g style="" class="row-rect-odd"><path d="M-105.5 -18.875 L105.5 -18.875 L105.5 18.875 L-105.5 18.875" stroke="none" stroke-width="0" fill="#ffffff"/><path d="M-105.5 -18.875 C-44.95038108577791 -18.875, 15.599237828444174 -18.875, 105.5 -18.875 M-105.5 -18.875 C-22.896018494974186 -18.875, 59.70796301005163 -18.875, 105.5 -18.875 M105.5 -18.875 C105.5 -6.725113845619175, 105.5 5.42477230876165, 105.5 18.875 M105.5 -18.875 C105.5 -5.268097670652079, 105.5 8.338804658695842, 105.5 18.875 M105.5 18.875 C58.61960537882577 18.875, 11.739210757651534 18.875, -105.5 18.875 M105.5 18.875 C48.29894589972207 18.875, -8.902108200555858 18.875, -105.5 18.875 M-105.5 18.875 C-105.5 9.969251401230126, -105.5 1.0635028024602526, -105.5 -18.875 M-105.5 18.875 C-105.5 8.233052325600879, -105.5 -2.408895348798243, -105.5 -18.875" stroke="#999" stroke-width="1.3" fill="none" stroke-dasharray="0 0"/></g><g style="" class="row-rect-even"><path d="M-105.5 18.875 L105.5 18.875 L105.5 56.625 L-105.5 56.625" stroke="none" stroke-width="0" fill="#f4f4f4"/><path d="M-105.5 18.875 C-43.49208085602361 18.875, 18.515838287952775 18.875, 105.5 18.875 M-105.5 18.875 C-35.002603443653484 18.875, 35.49479311269303 18.875, 105.5 18.875 M105.5 18.875 C105.5 33.78399635038082, 105.5 48.69299270076164, 105.5 56.625 M105.5 18.875 C105.5 30.420926142452473, 105.5 41.966852284904945, 105.5 56.625 M105.5 56.625 C33.386821244598735 56.625, -38.72635751080253 56.625, -105.5 56.625 M105.5 56.625 C38.467532209687334 56.625, -28.56493558062533 56.625, -105.5 56.625 M-105.5 56.625 C-105.5 45.604652234946045, -105.5 34.58430446989209, -105.5 18.875 M-105.5 56.625 C-105.5 45.99434009462239, -105.5 35.36368018924477, -105.5 18.875" stroke="#999" stroke-width="1.3" fill="none" stroke-dasharray="0 0"/></g><g class="label name" transform="translate(-80.5, -47.25)" style=""><g><rect class="background" style="stroke: none"/></g><text y="-10.1" style=""><tspan class="text-outer-tspan row" x="0" y="-0.1em" dy="1.1em"><tspan font-style="normal" class="text-inner-tspan" font-weight="normal">knowledge_releases</tspan></tspan></text></g><g class="label attribute-type" transform="translate(-93, -9.5)" style=""><g><rect class="background" style="stroke: none"/></g><text y="-10.1" style=""><tspan class="text-outer-tspan row" x="0" y="-0.1em" dy="1.1em"><tspan font-style="normal" class="text-inner-tspan" font-weight="normal">uuid</tspan></tspan></text></g><g class="label attribute-name" transform="translate(-20.33333333333333, -9.5)" style=""><g><rect class="background" style="stroke: none"/></g><text y="-10.1" style=""><tspan class="text-outer-tspan row" x="0" y="-0.1em" dy="1.1em"><tspan font-style="normal" class="text-inner-tspan" font-weight="normal">id</tspan></tspan></text></g><g class="label attribute-keys" transform="translate(58.33333333333334, -9.5)" style=""><g><rect class="background" style="stroke: none"/></g><text y="-10.1" style=""><tspan class="text-outer-tspan row" x="0" y="-0.1em" dy="1.1em"><tspan font-style="normal" class="text-inner-tspan" font-weight="normal">PK</tspan></tspan></text></g><g class="label attribute-comment" transform="translate(118, -9.5)" style=""><g><rect class="background" style="stroke: none"/></g><text y="-10.1" style=""><tspan class="text-outer-tspan row" x="0" y="-0.1em" dy="1.1em"/></text></g><g class="label attribute-type" transform="translate(-93, 28.25)" style=""><g><rect class="background" style="stroke: none"/></g><text y="-10.1" style=""><tspan class="text-outer-tspan row" x="0" y="-0.1em" dy="1.1em"><tspan font-style="normal" class="text-inner-tspan" font-weight="normal">text</tspan></tspan></text></g><g class="label attribute-name" transform="translate(-20.33333333333333, 28.25)" style=""><g><rect class="background" style="stroke: none"/></g><text y="-10.1" style=""><tspan class="text-outer-tspan row" x="0" y="-0.1em" dy="1.1em"><tspan font-style="normal" class="text-inner-tspan" font-weight="normal">state</tspan></tspan></text></g><g class="label attribute-keys" transform="translate(58.33333333333334, 28.25)" style=""><g><rect class="background" style="stroke: none"/></g><text y="-10.1" style=""><tspan class="text-outer-tspan row" x="0" y="-0.1em" dy="1.1em"/></text></g><g class="label attribute-comment" transform="translate(118, 28.25)" style=""><g><rect class="background" style="stroke: none"/></g><text y="-10.1" style=""><tspan class="text-outer-tspan row" x="0" y="-0.1em" dy="1.1em"/></text></g><g class="divider"><path d="M-105.5 -18.87505 L-105.5 -18.87495 L105.5 -18.87495 L105.5 -18.87505" stroke="none" stroke-width="0" fill="#eee" fill-rule="evenodd"/><path d="M-105.5 -18.87505 C-105.5 -18.875028217854528, -105.5 -18.875006435709057, -105.5 -18.87495 M-105.5 -18.87505 C-105.5 -18.875020472203833, -105.5 -18.874990944407667, -105.5 -18.87495 M-105.5 -18.87495 C-52.11582963750654 -18.87495, 1.2683407249869134 -18.87495, 105.5 -18.87495 M-105.5 -18.87495 C-30.076306858489005 -18.87495, 45.34738628302199 -18.87495, 105.5 -18.87495 M105.5 -18.87495 C105.5 -18.87498556995921, 105.5 -18.87502113991842, 105.5 -18.87505 M105.5 -18.87495 C105.5 -18.874988731313653, 105.5 -18.875027462627312, 105.5 -18.87505 M105.5 -18.87505 C44.32425797301866 -18.87505, -16.85148405396268 -18.87505, -105.5 -18.87505 M105.5 -18.87505 C42.87862913411306 -18.87505, -19.742741731773876 -18.87505, -105.5 -18.87505" stroke="#999" stroke-width="1.3" fill="none" stroke-dasharray="0 0"/></g><g class="divider"><path d="M-32.83338333333333 -18.875 L-32.83328333333333 -18.875 L-32.83328333333333 56.625 L-32.83338333333333 56.625" stroke="none" stroke-width="0" fill="#eee" fill-rule="evenodd"/><path d="M-32.83338333333333 -18.875 C-32.8333483978985 -18.875, -32.833313462463664 -18.875, -32.83328333333333 -18.875 M-32.83338333333333 -18.875 C-32.8333455225313 -18.875, -32.833307711729276 -18.875, -32.83328333333333 -18.875 M-32.83328333333333 -18.875 C-32.83328333333333 3.2623295973500994, -32.83328333333333 25.3996591947002, -32.83328333333333 56.625 M-32.83328333333333 -18.875 C-32.83328333333333 -2.660500180523915, -32.83328333333333 13.55399963895217, -32.83328333333333 56.625 M-32.83328333333333 56.625 C-32.833321881146894 56.625, -32.83336042896046 56.625, -32.83338333333333 56.625 M-32.83328333333333 56.625 C-32.83331667848579 56.625, -32.833350023638246 56.625, -32.83338333333333 56.625 M-32.83338333333333 56.625 C-32.83338333333333 35.24873146435628, -32.83338333333333 13.872462928712558, -32.83338333333333 -18.875 M-32.83338333333333 56.625 C-32.83338333333333 28.107828133419652, -32.83338333333333 -0.4093437331606964, -32.83338333333333 -18.875" stroke="#999" stroke-width="1.3" fill="none" stroke-dasharray="0 0"/></g><g class="divider"><path d="M45.83328333333334 -18.875 L45.833383333333344 -18.875 L45.833383333333344 56.625 L45.83328333333334 56.625" stroke="none" stroke-width="0" fill="#eee" fill-rule="evenodd"/><path d="M45.83328333333334 -18.875 C45.83331591555469 -18.875, 45.83334849777604 -18.875, 45.833383333333344 -18.875 M45.83328333333334 -18.875 C45.83331313501083 -18.875, 45.83334293668833 -18.875, 45.833383333333344 -18.875 M45.833383333333344 -18.875 C45.833383333333344 7.599070882601222, 45.833383333333344 34.07314176520244, 45.833383333333344 56.625 M45.833383333333344 -18.875 C45.833383333333344 -1.5635302105962054, 45.833383333333344 15.747939578807589, 45.833383333333344 56.625 M45.833383333333344 56.625 C45.83335556886832 56.625, 45.8333278044033 56.625, 45.83328333333334 56.625 M45.833383333333344 56.625 C45.8333513469367 56.625, 45.83331936054005 56.625, 45.83328333333334 56.625 M45.83328333333334 56.625 C45.83328333333334 36.91256140822762, 45.83328333333334 17.20012281645524, 45.83328333333334 -18.875 M45.83328333333334 56.625 C45.83328333333334 29.177243014110463, 45.83328333333334 1.7294860282209257, 45.83328333333334 -18.875" stroke="#999" stroke-width="1.3" fill="none" stroke-dasharray="0 0"/></g><g class="divider"><path d="M-105.5 -18.87505 L-105.5 -18.87495 L105.5 -18.87495 L105.5 -18.87505" stroke="none" stroke-width="0" fill="#eee" fill-rule="evenodd"/><path d="M-105.5 -18.87505 C-105.5 -18.875026940984952, -105.5 -18.875003881969903, -105.5 -18.87495 M-105.5 -18.87505 C-105.5 -18.875019069893924, -105.5 -18.874988139787842, -105.5 -18.87495 M-105.5 -18.87495 C-39.321251881433 -18.87495, 26.857496237134 -18.87495, 105.5 -18.87495 M-105.5 -18.87495 C-48.14046008607607 -18.87495, 9.219079827847864 -18.87495, 105.5 -18.87495 M105.5 -18.87495 C105.5 -18.874986791377342, 105.5 -18.87502358275469, 105.5 -18.87505 M105.5 -18.87495 C105.5 -18.874979473317495, 105.5 -18.875008946634992, 105.5 -18.87505 M105.5 -18.87505 C29.792708096577073 -18.87505, -45.914583806845854 -18.87505, -105.5 -18.87505 M105.5 -18.87505 C41.554092250386496 -18.87505, -22.391815499227008 -18.87505, -105.5 -18.87505" stroke="#999" stroke-width="1.3" fill="none" stroke-dasharray="0 0"/></g></g><g class="node default" id="my-svg-entity-feedback-1" data-look="classic" transform="translate(315, 318.625)"><g class="outer-path" style=""><path d="M-118 -94.375 L118 -94.375 L118 94.375 L-118 94.375" stroke="none" stroke-width="0" fill="#eee"/><path d="M-118 -94.375 C-36.70587358521652 -94.375, 44.588252829566954 -94.375, 118 -94.375 M-118 -94.375 C-38.148605762323044 -94.375, 41.70278847535391 -94.375, 118 -94.375 M118 -94.375 C118 -46.68354337231865, 118 1.0079132553626948, 118 94.375 M118 -94.375 C118 -29.542644543737453, 118 35.289710912525095, 118 94.375 M118 94.375 C62.86705071723156 94.375, 7.734101434463113 94.375, -118 94.375 M118 94.375 C48.14163348342889 94.375, -21.71673303314222 94.375, -118 94.375 M-118 94.375 C-118 28.15400987587701, -118 -38.06698024824598, -118 -94.375 M-118 94.375 C-118 19.4622211418025, -118 -55.450557716395, -118 -94.375" stroke="#999" stroke-width="1.3" fill="none" stroke-dasharray="0 0"/></g><g style="" class="row-rect-odd"><path d="M-118 -56.625 L118 -56.625 L118 -18.875 L-118 -18.875" stroke="none" stroke-width="0" fill="#ffffff"/><path d="M-118 -56.625 C-42.832702047258465 -56.625, 32.33459590548307 -56.625, 118 -56.625 M-118 -56.625 C-33.15867745064729 -56.625, 51.68264509870542 -56.625, 118 -56.625 M118 -56.625 C118 -48.57318559990599, 118 -40.52137119981198, 118 -18.875 M118 -56.625 C118 -46.251037777063374, 118 -35.87707555412675, 118 -18.875 M118 -18.875 C50.9979547717286 -18.875, -16.004090456542798 -18.875, -118 -18.875 M118 -18.875 C28.063658964355383 -18.875, -61.87268207128923 -18.875, -118 -18.875 M-118 -18.875 C-118 -29.723895300499528, -118 -40.572790600999056, -118 -56.625 M-118 -18.875 C-118 -29.181088413442943, -118 -39.487176826885886, -118 -56.625" stroke="#999" stroke-width="1.3" fill="none" stroke-dasharray="0 0"/></g><g style="" class="row-rect-even"><path d="M-118 -18.875 L118 -18.875 L118 18.875 L-118 18.875" stroke="none" stroke-width="0" fill="#f4f4f4"/><path d="M-118 -18.875 C-65.28424425019077 -18.875, -12.568488500381548 -18.875, 118 -18.875 M-118 -18.875 C-52.94034182709156 -18.875, 12.119316345816884 -18.875, 118 -18.875 M118 -18.875 C118 -9.976324400701595, 118 -1.077648801403189, 118 18.875 M118 -18.875 C118 -8.02116706393721, 118 2.832665872125581, 118 18.875 M118 18.875 C49.80924485202391 18.875, -18.381510295952182 18.875, -118 18.875 M118 18.875 C50.71873997626267 18.875, -16.562520047474663 18.875, -118 18.875 M-118 18.875 C-118 9.45402071051537, -118 0.0330414210307417, -118 -18.875 M-118 18.875 C-118 5.9358481549549325, -118 -7.003303690090135, -118 -18.875" stroke="#999" stroke-width="1.3" fill="none" stroke-dasharray="0 0"/></g><g style="" class="row-rect-odd"><path d="M-118 18.875 L118 18.875 L118 56.625 L-118 56.625" stroke="none" stroke-width="0" fill="#ffffff"/><path d="M-118 18.875 C-26.32853168446806 18.875, 65.34293663106388 18.875, 118 18.875 M-118 18.875 C-37.26822579760834 18.875, 43.463548404783324 18.875, 118 18.875 M118 18.875 C118 29.681086945819388, 118 40.487173891638776, 118 56.625 M118 18.875 C118 32.47696457492151, 118 46.07892914984302, 118 56.625 M118 56.625 C46.34105584597046 56.625, -25.317888308059082 56.625, -118 56.625 M118 56.625 C51.393140555835544 56.625, -15.213718888328913 56.625, -118 56.625 M-118 56.625 C-118 47.19104262566031, -118 37.75708525132062, -118 18.875 M-118 56.625 C-118 47.84655061495534, -118 39.06810122991068, -118 18.875" stroke="#999" stroke-width="1.3" fill="none" stroke-dasharray="0 0"/></g><g style="" class="row-rect-even"><path d="M-118 56.625 L118 56.625 L118 94.375 L-118 94.375" stroke="none" stroke-width="0" fill="#f4f4f4"/><path d="M-118 56.625 C-34.970708713484896 56.625, 48.05858257303021 56.625, 118 56.625 M-118 56.625 C-57.37250833920662 56.625, 3.2549833215867636 56.625, 118 56.625 M118 56.625 C118 70.8542174336255, 118 85.083434867251, 118 94.375 M118 56.625 C118 66.77376900409352, 118 76.92253800818705, 118 94.375 M118 94.375 C46.83928331336337 94.375, -24.321433373273265 94.375, -118 94.375 M118 94.375 C62.93972422331222 94.375, 7.879448446624437 94.375, -118 94.375 M-118 94.375 C-118 86.7305938412495, -118 79.08618768249899, -118 56.625 M-118 94.375 C-118 81.36564614272028, -118 68.35629228544056, -118 56.625" stroke="#999" stroke-width="1.3" fill="none" stroke-dasharray="0 0"/></g><g class="label name" transform="translate(-37.5, -85)" style=""><g><rect class="background" style="stroke: none"/></g><text y="-10.1" style=""><tspan class="text-outer-tspan row" x="0" y="-0.1em" dy="1.1em"><tspan font-style="normal" class="text-inner-tspan" font-weight="normal">feedback</tspan></tspan></text></g><g class="label attribute-type" transform="translate(-105.5, -47.25)" style=""><g><rect class="background" style="stroke: none"/></g><text y="-10.1" style=""><tspan class="text-outer-tspan row" x="0" y="-0.1em" dy="1.1em"><tspan font-style="normal" class="text-inner-tspan" font-weight="normal">uuid</tspan></tspan></text></g><g class="label attribute-name" transform="translate(-46.5, -47.25)" style=""><g><rect class="background" style="stroke: none"/></g><text y="-10.1" style=""><tspan class="text-outer-tspan row" x="0" y="-0.1em" dy="1.1em"><tspan font-style="normal" class="text-inner-tspan" font-weight="normal">tenant_id</tspan></tspan></text></g><g class="label attribute-keys" transform="translate(59.5, -47.25)" style=""><g><rect class="background" style="stroke: none"/></g><text y="-10.1" style=""><tspan class="text-outer-tspan row" x="0" y="-0.1em" dy="1.1em"><tspan font-style="normal" class="text-inner-tspan" font-weight="normal">PK,FK</tspan></tspan></text></g><g class="label attribute-comment" transform="translate(130.5, -47.25)" style=""><g><rect class="background" style="stroke: none"/></g><text y="-10.1" style=""><tspan class="text-outer-tspan row" x="0" y="-0.1em" dy="1.1em"/></text></g><g class="label attribute-type" transform="translate(-105.5, -9.5)" style=""><g><rect class="background" style="stroke: none"/></g><text y="-10.1" style=""><tspan class="text-outer-tspan row" x="0" y="-0.1em" dy="1.1em"><tspan font-style="normal" class="text-inner-tspan" font-weight="normal">uuid</tspan></tspan></text></g><g class="label attribute-name" transform="translate(-46.5, -9.5)" style=""><g><rect class="background" style="stroke: none"/></g><text y="-10.1" style=""><tspan class="text-outer-tspan row" x="0" y="-0.1em" dy="1.1em"><tspan font-style="normal" class="text-inner-tspan" font-weight="normal">id</tspan></tspan></text></g><g class="label attribute-keys" transform="translate(59.5, -9.5)" style=""><g><rect class="background" style="stroke: none"/></g><text y="-10.1" style=""><tspan class="text-outer-tspan row" x="0" y="-0.1em" dy="1.1em"><tspan font-style="normal" class="text-inner-tspan" font-weight="normal">PK</tspan></tspan></text></g><g class="label attribute-comment" transform="translate(130.5, -9.5)" style=""><g><rect class="background" style="stroke: none"/></g><text y="-10.1" style=""><tspan class="text-outer-tspan row" x="0" y="-0.1em" dy="1.1em"/></text></g><g class="label attribute-type" transform="translate(-105.5, 28.25)" style=""><g><rect class="background" style="stroke: none"/></g><text y="-10.1" style=""><tspan class="text-outer-tspan row" x="0" y="-0.1em" dy="1.1em"><tspan font-style="normal" class="text-inner-tspan" font-weight="normal">uuid</tspan></tspan></text></g><g class="label attribute-name" transform="translate(-46.5, 28.25)" style=""><g><rect class="background" style="stroke: none"/></g><text y="-10.1" style=""><tspan class="text-outer-tspan row" x="0" y="-0.1em" dy="1.1em"><tspan font-style="normal" class="text-inner-tspan" font-weight="normal">job_id</tspan></tspan></text></g><g class="label attribute-keys" transform="translate(59.5, 28.25)" style=""><g><rect class="background" style="stroke: none"/></g><text y="-10.1" style=""><tspan class="text-outer-tspan row" x="0" y="-0.1em" dy="1.1em"><tspan font-style="normal" class="text-inner-tspan" font-weight="normal">FK</tspan></tspan></text></g><g class="label attribute-comment" transform="translate(130.5, 28.25)" style=""><g><rect class="background" style="stroke: none"/></g><text y="-10.1" style=""><tspan class="text-outer-tspan row" x="0" y="-0.1em" dy="1.1em"/></text></g><g class="label attribute-type" transform="translate(-105.5, 66)" style=""><g><rect class="background" style="stroke: none"/></g><text y="-10.1" style=""><tspan class="text-outer-tspan row" x="0" y="-0.1em" dy="1.1em"><tspan font-style="normal" class="text-inner-tspan" font-weight="normal">uuid</tspan></tspan></text></g><g class="label attribute-name" transform="translate(-46.5, 66)" style=""><g><rect class="background" style="stroke: none"/></g><text y="-10.1" style=""><tspan class="text-outer-tspan row" x="0" y="-0.1em" dy="1.1em"><tspan font-style="normal" class="text-inner-tspan" font-weight="normal">release_id</tspan></tspan></text></g><g class="label attribute-keys" transform="translate(59.5, 66)" style=""><g><rect class="background" style="stroke: none"/></g><text y="-10.1" style=""><tspan class="text-outer-tspan row" x="0" y="-0.1em" dy="1.1em"><tspan font-style="normal" class="text-inner-tspan" font-weight="normal">FK</tspan></tspan></text></g><g class="label attribute-comment" transform="translate(130.5, 66)" style=""><g><rect class="background" style="stroke: none"/></g><text y="-10.1" style=""><tspan class="text-outer-tspan row" x="0" y="-0.1em" dy="1.1em"/></text></g><g class="divider"><path d="M-118 -56.62505 L-118 -56.62495 L118 -56.62495 L118 -56.62505" stroke="none" stroke-width="0" fill="#eee" fill-rule="evenodd"/><path d="M-118 -56.62505 C-118 -56.625010873131984, -118 -56.62497174626397, -118 -56.62495 M-118 -56.62505 C-118 -56.625011810728815, -118 -56.624973621457634, -118 -56.62495 M-118 -56.62495 C-50.624778230301914 -56.62495, 16.750443539396173 -56.62495, 118 -56.62495 M-118 -56.62495 C-28.17764235804586 -56.62495, 61.64471528390828 -56.62495, 118 -56.62495 M118 -56.62495 C118 -56.62497266813472, 118 -56.624995336269436, 118 -56.62505 M118 -56.62495 C118 -56.62497100120598, 118 -56.62499200241196, 118 -56.62505 M118 -56.62505 C50.23915068241489 -56.62505, -17.521698635170225 -56.62505, -118 -56.62505 M118 -56.62505 C36.306275784452126 -56.62505, -45.38744843109575 -56.62505, -118 -56.62505" stroke="#999" stroke-width="1.3" fill="none" stroke-dasharray="0 0"/></g><g class="divider"><path d="M-59.00005 -56.625 L-58.99995 -56.625 L-58.99995 94.375 L-59.00005 94.375" stroke="none" stroke-width="0" fill="#eee" fill-rule="evenodd"/><path d="M-59.00005 -56.625 C-59.00002642292484 -56.625, -59.00000284584968 -56.625, -58.99995 -56.625 M-59.00005 -56.625 C-59.00002027143363 -56.625, -58.99999054286726 -56.625, -58.99995 -56.625 M-58.99995 -56.625 C-58.99995 -19.425504539041192, -58.99995 17.773990921917616, -58.99995 94.375 M-58.99995 -56.625 C-58.99995 -20.86294602731349, -58.99995 14.899107945373018, -58.99995 94.375 M-58.99995 94.375 C-58.99998720807527 94.375, -59.00002441615053 94.375, -59.00005 94.375 M-58.99995 94.375 C-58.99998633359214 94.375, -59.00002266718428 94.375, -59.00005 94.375 M-59.00005 94.375 C-59.00005 63.791728846498444, -59.00005 33.20845769299689, -59.00005 -56.625 M-59.00005 94.375 C-59.00005 45.063028692947526, -59.00005 -4.248942614104948, -59.00005 -56.625" stroke="#999" stroke-width="1.3" fill="none" stroke-dasharray="0 0"/></g><g class="divider"><path d="M46.99995 -56.625 L47.00005 -56.625 L47.00005 94.375 L46.99995 94.375" stroke="none" stroke-width="0" fill="#eee" fill-rule="evenodd"/><path d="M46.99995 -56.625 C46.99998771406523 -56.625, 47.000025428130456 -56.625, 47.00005 -56.625 M46.99995 -56.625 C46.99998764454913 -56.625, 47.00002528909827 -56.625, 47.00005 -56.625 M47.00005 -56.625 C47.00005 -11.568410145215168, 47.00005 33.488179709569664, 47.00005 94.375 M47.00005 -56.625 C47.00005 -8.526728087383212, 47.00005 39.571543825233576, 47.00005 94.375 M47.00005 94.375 C47.00001000802427 94.375, 46.99997001604853 94.375, 46.99995 94.375 M47.00005 94.375 C47.00002183446262 94.375, 46.99999366892524 94.375, 46.99995 94.375 M46.99995 94.375 C46.99995 38.11102691661791, 46.99995 -18.15294616676418, 46.99995 -56.625 M46.99995 94.375 C46.99995 48.038138298835435, 46.99995 1.7012765976708693, 46.99995 -56.625" stroke="#999" stroke-width="1.3" fill="none" stroke-dasharray="0 0"/></g><g class="divider"><path d="M-118 -56.62505 L-118 -56.62495 L118 -56.62495 L118 -56.62505" stroke="none" stroke-width="0" fill="#eee" fill-rule="evenodd"/><path d="M-118 -56.62505 C-118 -56.62501987778338, -118 -56.624989755566766, -118 -56.62495 M-118 -56.62505 C-118 -56.625020578147286, -118 -56.62499115629458, -118 -56.62495 M-118 -56.62495 C-24.75033122456935 -56.62495, 68.4993375508613 -56.62495, 118 -56.62495 M-118 -56.62495 C-29.19711052667421 -56.62495, 59.60577894665158 -56.62495, 118 -56.62495 M118 -56.62495 C118 -56.62498641661261, 118 -56.625022833225216, 118 -56.62505 M118 -56.62495 C118 -56.624981169830306, 118 -56.62501233966062, 118 -56.62505 M118 -56.62505 C41.320174309820686 -56.62505, -35.35965138035863 -56.62505, -118 -56.62505 M118 -56.62505 C37.135054335033914 -56.62505, -43.72989132993217 -56.62505, -118 -56.62505" stroke="#999" stroke-width="1.3" fill="none" stroke-dasharray="0 0"/></g></g><g class="node default" id="my-svg-entity-generation_jobs-2" data-look="classic" transform="translate(128.75, 64.625)"><g class="outer-path" style=""><path d="M-114.5 -56.625 L114.5 -56.625 L114.5 56.625 L-114.5 56.625" stroke="none" stroke-width="0" fill="#eee"/><path d="M-114.5 -56.625 C-66.06849115628913 -56.625, -17.636982312578255 -56.625, 114.5 -56.625 M-114.5 -56.625 C-29.294697435738158 -56.625, 55.910605128523684 -56.625, 114.5 -56.625 M114.5 -56.625 C114.5 -21.394312432400127, 114.5 13.836375135199745, 114.5 56.625 M114.5 -56.625 C114.5 -18.527692846464653, 114.5 19.569614307070694, 114.5 56.625 M114.5 56.625 C30.748515133602368 56.625, -53.002969732795265 56.625, -114.5 56.625 M114.5 56.625 C44.211747443124054 56.625, -26.076505113751892 56.625, -114.5 56.625 M-114.5 56.625 C-114.5 27.810055457563763, -114.5 -1.0048890848724739, -114.5 -56.625 M-114.5 56.625 C-114.5 23.7420881492745, -114.5 -9.140823701450998, -114.5 -56.625" stroke="#999" stroke-width="1.3" fill="none" stroke-dasharray="0 0"/></g><g style="" class="row-rect-odd"><path d="M-114.5 -18.875 L114.5 -18.875 L114.5 18.875 L-114.5 18.875" stroke="none" stroke-width="0" fill="#ffffff"/><path d="M-114.5 -18.875 C-25.893137331877327 -18.875, 62.713725336245346 -18.875, 114.5 -18.875 M-114.5 -18.875 C-44.600797271715564 -18.875, 25.298405456568872 -18.875, 114.5 -18.875 M114.5 -18.875 C114.5 -10.7646101991919, 114.5 -2.6542203983837993, 114.5 18.875 M114.5 -18.875 C114.5 -4.408743981857068, 114.5 10.057512036285864, 114.5 18.875 M114.5 18.875 C61.14158349927787 18.875, 7.783166998555743 18.875, -114.5 18.875 M114.5 18.875 C36.286491119727245 18.875, -41.92701776054551 18.875, -114.5 18.875 M-114.5 18.875 C-114.5 9.43991712681718, -114.5 0.004834253634360408, -114.5 -18.875 M-114.5 18.875 C-114.5 9.575588548202077, -114.5 0.27617709640415455, -114.5 -18.875" stroke="#999" stroke-width="1.3" fill="none" stroke-dasharray="0 0"/></g><g style="" class="row-rect-even"><path d="M-114.5 18.875 L114.5 18.875 L114.5 56.625 L-114.5 56.625" stroke="none" stroke-width="0" fill="#f4f4f4"/><path d="M-114.5 18.875 C-55.167912850211586 18.875, 4.164174299576828 18.875, 114.5 18.875 M-114.5 18.875 C-43.24400444319514 18.875, 28.011991113609724 18.875, 114.5 18.875 M114.5 18.875 C114.5 32.12040319942604, 114.5 45.36580639885209, 114.5 56.625 M114.5 18.875 C114.5 32.1850845121792, 114.5 45.4951690243584, 114.5 56.625 M114.5 56.625 C43.569005346966065 56.625, -27.36198930606787 56.625, -114.5 56.625 M114.5 56.625 C43.75327879455982 56.625, -26.993442410880363 56.625, -114.5 56.625 M-114.5 56.625 C-114.5 41.581407274902396, -114.5 26.537814549804793, -114.5 18.875 M-114.5 56.625 C-114.5 43.86164716120244, -114.5 31.098294322404882, -114.5 18.875" stroke="#999" stroke-width="1.3" fill="none" stroke-dasharray="0 0"/></g><g class="label name" transform="translate(-63.5, -47.25)" style=""><g><rect class="background" style="stroke: none"/></g><text y="-10.1" style=""><tspan class="text-outer-tspan row" x="0" y="-0.1em" dy="1.1em"><tspan font-style="normal" class="text-inner-tspan" font-weight="normal">generation_jobs</tspan></tspan></text></g><g class="label attribute-type" transform="translate(-102, -9.5)" style=""><g><rect class="background" style="stroke: none"/></g><text y="-10.1" style=""><tspan class="text-outer-tspan row" x="0" y="-0.1em" dy="1.1em"><tspan font-style="normal" class="text-inner-tspan" font-weight="normal">uuid</tspan></tspan></text></g><g class="label attribute-name" transform="translate(-43, -9.5)" style=""><g><rect class="background" style="stroke: none"/></g><text y="-10.1" style=""><tspan class="text-outer-tspan row" x="0" y="-0.1em" dy="1.1em"><tspan font-style="normal" class="text-inner-tspan" font-weight="normal">tenant_id</tspan></tspan></text></g><g class="label attribute-keys" transform="translate(56, -9.5)" style=""><g><rect class="background" style="stroke: none"/></g><text y="-10.1" style=""><tspan class="text-outer-tspan row" x="0" y="-0.1em" dy="1.1em"><tspan font-style="normal" class="text-inner-tspan" font-weight="normal">PK,FK</tspan></tspan></text></g><g class="label attribute-comment" transform="translate(127, -9.5)" style=""><g><rect class="background" style="stroke: none"/></g><text y="-10.1" style=""><tspan class="text-outer-tspan row" x="0" y="-0.1em" dy="1.1em"/></text></g><g class="label attribute-type" transform="translate(-102, 28.25)" style=""><g><rect class="background" style="stroke: none"/></g><text y="-10.1" style=""><tspan class="text-outer-tspan row" x="0" y="-0.1em" dy="1.1em"><tspan font-style="normal" class="text-inner-tspan" font-weight="normal">uuid</tspan></tspan></text></g><g class="label attribute-name" transform="translate(-43, 28.25)" style=""><g><rect class="background" style="stroke: none"/></g><text y="-10.1" style=""><tspan class="text-outer-tspan row" x="0" y="-0.1em" dy="1.1em"><tspan font-style="normal" class="text-inner-tspan" font-weight="normal">id</tspan></tspan></text></g><g class="label attribute-keys" transform="translate(56, 28.25)" style=""><g><rect class="background" style="stroke: none"/></g><text y="-10.1" style=""><tspan class="text-outer-tspan row" x="0" y="-0.1em" dy="1.1em"><tspan font-style="normal" class="text-inner-tspan" font-weight="normal">PK</tspan></tspan></text></g><g class="label attribute-comment" transform="translate(127, 28.25)" style=""><g><rect class="background" style="stroke: none"/></g><text y="-10.1" style=""><tspan class="text-outer-tspan row" x="0" y="-0.1em" dy="1.1em"/></text></g><g class="divider"><path d="M-114.5 -18.87505 L-114.5 -18.87495 L114.5 -18.87495 L114.5 -18.87505" stroke="none" stroke-width="0" fill="#eee" fill-rule="evenodd"/><path d="M-114.5 -18.87505 C-114.5 -18.875022131714267, -114.5 -18.874994263428537, -114.5 -18.87495 M-114.5 -18.87505 C-114.5 -18.8750226214444, -114.5 -18.8749952428888, -114.5 -18.87495 M-114.5 -18.87495 C-29.139573243695963 -18.87495, 56.22085351260807 -18.87495, 114.5 -18.87495 M-114.5 -18.87495 C-38.35281887573137 -18.87495, 37.794362248537254 -18.87495, 114.5 -18.87495 M114.5 -18.87495 C114.5 -18.874977240471306, 114.5 -18.875004480942614, 114.5 -18.87505 M114.5 -18.87495 C114.5 -18.87497743002562, 114.5 -18.875004860051245, 114.5 -18.87505 M114.5 -18.87505 C63.01975554671459 -18.87505, 11.539511093429184 -18.87505, -114.5 -18.87505 M114.5 -18.87505 C29.482631291350586 -18.87505, -55.53473741729883 -18.87505, -114.5 -18.87505" stroke="#999" stroke-width="1.3" fill="none" stroke-dasharray="0 0"/></g><g class="divider"><path d="M-55.50005 -18.875 L-55.49995 -18.875 L-55.49995 56.625 L-55.50005 56.625" stroke="none" stroke-width="0" fill="#eee" fill-rule="evenodd"/><path d="M-55.50005 -18.875 C-55.50002563995302 -18.875, -55.500001279906044 -18.875, -55.49995 -18.875 M-55.50005 -18.875 C-55.500017478807685 -18.875, -55.49998495761537 -18.875, -55.49995 -18.875 M-55.49995 -18.875 C-55.49995 3.0148713720616946, -55.49995 24.90474274412339, -55.49995 56.625 M-55.49995 -18.875 C-55.49995 7.291181272265007, -55.49995 33.457362544530014, -55.49995 56.625 M-55.49995 56.625 C-55.49997064433276 56.625, -55.49999128866553 56.625, -55.50005 56.625 M-55.49995 56.625 C-55.49998888662912 56.625, -55.500027773258246 56.625, -55.50005 56.625 M-55.50005 56.625 C-55.50005 36.70295171064943, -55.50005 16.780903421298866, -55.50005 -18.875 M-55.50005 56.625 C-55.50005 36.06980962167766, -55.50005 15.514619243355334, -55.50005 -18.875" stroke="#999" stroke-width="1.3" fill="none" stroke-dasharray="0 0"/></g><g class="divider"><path d="M43.49995 -18.875 L43.50005 -18.875 L43.50005 56.625 L43.49995 56.625" stroke="none" stroke-width="0" fill="#eee" fill-rule="evenodd"/><path d="M43.49995 -18.875 C43.49998397152189 -18.875, 43.50001794304378 -18.875, 43.50005 -18.875 M43.49995 -18.875 C43.499971096931446 -18.875, 43.499992193862894 -18.875, 43.50005 -18.875 M43.50005 -18.875 C43.50005 10.178559760479917, 43.50005 39.232119520959834, 43.50005 56.625 M43.50005 -18.875 C43.50005 10.035861444698817, 43.50005 38.946722889397634, 43.50005 56.625 M43.50005 56.625 C43.5000294850244 56.625, 43.50000897004879 56.625, 43.49995 56.625 M43.50005 56.625 C43.50002412405343 56.625, 43.49999824810686 56.625, 43.49995 56.625 M43.49995 56.625 C43.49995 28.820698191732493, 43.49995 1.0163963834649863, 43.49995 -18.875 M43.49995 56.625 C43.49995 32.38526322302495, 43.49995 8.145526446049907, 43.49995 -18.875" stroke="#999" stroke-width="1.3" fill="none" stroke-dasharray="0 0"/></g><g class="divider"><path d="M-114.5 -18.87505 L-114.5 -18.87495 L114.5 -18.87495 L114.5 -18.87505" stroke="none" stroke-width="0" fill="#eee" fill-rule="evenodd"/><path d="M-114.5 -18.87505 C-114.5 -18.87501444160568, -114.5 -18.87497888321135, -114.5 -18.87495 M-114.5 -18.87505 C-114.5 -18.875018234009733, -114.5 -18.874986468019465, -114.5 -18.87495 M-114.5 -18.87495 C-35.874390578308066 -18.87495, 42.75121884338387 -18.87495, 114.5 -18.87495 M-114.5 -18.87495 C-44.70327570818212 -18.87495, 25.093448583635762 -18.87495, 114.5 -18.87495 M114.5 -18.87495 C114.5 -18.8749764880155, 114.5 -18.875002976030995, 114.5 -18.87505 M114.5 -18.87495 C114.5 -18.874973339429683, 114.5 -18.874996678859368, 114.5 -18.87505 M114.5 -18.87505 C44.723440404489054 -18.87505, -25.053119191021892 -18.87505, -114.5 -18.87505 M114.5 -18.87505 C57.202227333859355 -18.87505, -0.09554533228129003 -18.87505, -114.5 -18.87505" stroke="#999" stroke-width="1.3" fill="none" stroke-dasharray="0 0"/></g></g></g></g></g><defs><filter id="my-svg-drop-shadow" height="130%" width="130%"><feDropShadow dx="4" dy="4" stdDeviation="0" flood-opacity="0.06" flood-color="#000000"/></filter></defs><defs><filter id="my-svg-drop-shadow-small" height="150%" width="150%"><feDropShadow dx="2" dy="2" stdDeviation="0" flood-opacity="0.06" flood-color="#000000"/></filter></defs><linearGradient id="my-svg-gradient" gradientUnits="objectBoundingBox" x1="0%" y1="0%" x2="100%" y2="0%"><stop offset="0%" stop-color="#d4d4d4" stop-opacity="1"/><stop offset="100%" stop-color="#e3e3e3" stop-opacity="1"/></linearGradient></svg>